<svg width="1770" height="429" viewBox="0 0 1770 429" fill="none" xmlns="http://www.w3.org/2000/svg">
<path d="M1649.97 115H1683.61V197.765H1684.92C1687.9 190.408 1692.45 184.102 1698.58 178.847C1704.89 173.417 1713.56 170.702 1724.59 170.702C1737.91 170.702 1748.68 175.169 1756.91 184.102C1765.32 192.86 1769.52 205.472 1769.52 221.938V309.432H1735.89V226.667C1735.89 207.049 1727.4 197.24 1710.41 197.24C1706.9 197.24 1703.57 197.677 1700.42 198.553C1697.27 199.429 1694.38 200.83 1691.75 202.757C1689.3 204.509 1687.28 206.698 1685.71 209.326C1684.31 211.953 1683.61 215.106 1683.61 218.785V309.432H1649.97V115Z" fill="#00E5C4"/>
<path d="M1556.28 312.586C1541.39 312.586 1528.52 310.309 1517.66 305.755C1506.8 301.025 1498.3 294.719 1492.17 286.837L1511.88 268.97C1517.48 275.101 1523.88 279.83 1531.06 283.158C1538.42 286.487 1546.91 288.151 1556.54 288.151C1564.95 288.151 1571.7 286.749 1576.78 283.947C1581.86 281.144 1584.4 276.853 1584.4 271.072C1584.4 266.168 1582.64 262.839 1579.14 261.088C1575.81 259.336 1571.35 258.022 1565.74 257.147L1543.93 253.731C1538.33 252.855 1532.81 251.629 1527.38 250.052C1522.12 248.301 1517.4 245.936 1513.19 242.958C1509.16 239.981 1505.92 236.214 1503.47 231.66C1501.02 226.931 1499.79 221.238 1499.79 214.582C1499.79 200.393 1505.05 189.533 1515.56 182.001C1526.24 174.469 1540.87 170.703 1559.43 170.703C1572.57 170.703 1583.7 172.542 1592.8 176.221C1602.09 179.899 1609.71 185.067 1615.66 191.723L1598.06 211.166C1594.2 206.962 1589.04 203.284 1582.56 200.131C1576.25 196.803 1568.19 195.139 1558.38 195.139C1541.22 195.139 1532.63 200.481 1532.63 211.166C1532.63 216.071 1534.39 219.486 1537.89 221.413C1541.39 223.165 1545.95 224.478 1551.55 225.354L1573.1 228.77C1578.88 229.646 1584.4 230.96 1589.65 232.711C1595.08 234.288 1599.81 236.565 1603.84 239.543C1608.04 242.52 1611.37 246.286 1613.82 250.841C1616.28 255.395 1617.5 261 1617.5 267.656C1617.5 281.67 1612.07 292.705 1601.21 300.762C1590.53 308.645 1575.55 312.586 1556.28 312.586Z" fill="#00E5C4"/>
<path d="M1407.67 312.586C1396.81 312.586 1387.18 310.922 1378.77 307.594C1370.36 304.266 1363.27 299.536 1357.49 293.406C1351.88 287.275 1347.59 279.918 1344.61 271.335C1341.63 262.577 1340.14 252.767 1340.14 241.907C1340.14 230.872 1341.63 220.975 1344.61 212.217C1347.76 203.459 1352.14 196.014 1357.75 189.884C1363.35 183.753 1370.1 179.023 1377.98 175.695C1386.04 172.367 1395.06 170.703 1405.04 170.703C1414.85 170.703 1423.7 172.367 1431.58 175.695C1439.46 178.848 1446.12 183.403 1451.55 189.358C1457.15 195.314 1461.45 202.495 1464.42 210.903C1467.4 219.311 1468.89 228.595 1468.89 238.754V249.79H1373.78V253.205C1373.78 263.015 1376.84 270.985 1382.97 277.115C1389.1 283.071 1397.69 286.049 1408.72 286.049C1417.13 286.049 1424.31 284.385 1430.27 281.056C1436.4 277.553 1441.48 272.999 1445.51 267.394L1464.69 286.574C1459.78 293.756 1452.6 299.887 1443.14 304.966C1433.86 310.046 1422.03 312.586 1407.67 312.586ZM1405.31 195.401C1395.85 195.401 1388.23 198.379 1382.45 204.335C1376.67 210.29 1373.78 218.173 1373.78 227.982V229.821H1435.26V227.456C1435.26 217.647 1432.54 209.852 1427.11 204.072C1421.86 198.291 1414.59 195.401 1405.31 195.401Z" fill="#00E5C4"/>
<path d="M1183.12 309.433V173.856H1210.97V192.511H1212.55C1214.65 186.555 1217.63 181.476 1221.48 177.272C1225.51 172.893 1231.12 170.703 1238.3 170.703C1245.13 170.703 1250.56 172.718 1254.59 176.746C1258.62 180.6 1261.24 186.118 1262.47 193.299H1263.78C1266.06 187.169 1269.39 181.914 1273.77 177.535C1278.32 172.98 1284.72 170.703 1292.95 170.703C1302.93 170.703 1310.12 174.294 1314.49 181.476C1318.87 188.657 1321.06 199.255 1321.06 213.268V309.433H1293.47V217.209C1293.47 209.327 1292.34 203.809 1290.06 200.656C1287.96 197.503 1284.72 195.927 1280.34 195.927C1276.31 195.927 1272.89 197.24 1270.09 199.868C1267.46 202.495 1266.15 206.524 1266.15 211.954V309.433H1238.3V217.209C1238.3 209.327 1237.25 203.809 1235.14 200.656C1233.04 197.503 1229.8 195.927 1225.42 195.927C1221.22 195.927 1217.72 197.24 1214.91 199.868C1212.29 202.495 1210.97 206.524 1210.97 211.954V309.433H1183.12Z" fill="#00E5C4"/>
<path d="M1149.86 309.433C1141.62 309.433 1135.23 307.419 1130.68 303.39C1126.3 299.186 1123.67 293.406 1122.79 286.049H1121.48C1119.03 294.457 1114.21 301.025 1107.03 305.755C1099.85 310.309 1091 312.586 1080.49 312.586C1066.83 312.586 1055.97 308.995 1047.91 301.813C1039.85 294.632 1035.82 284.647 1035.82 271.86C1035.82 244.535 1055.88 230.872 1095.99 230.872H1119.9V221.939C1119.9 213.356 1117.8 206.875 1113.6 202.495C1109.39 198.116 1102.56 195.927 1093.1 195.927C1084.52 195.927 1077.6 197.591 1072.35 200.919C1067.09 204.247 1062.62 208.539 1058.95 213.793L1039.77 197.503C1043.97 189.971 1050.71 183.665 1060 178.586C1069.46 173.331 1081.63 170.703 1096.52 170.703C1114.39 170.703 1128.31 174.907 1138.3 183.315C1148.45 191.548 1153.53 203.897 1153.53 220.362V284.209H1169.56V309.433H1149.86ZM1091.79 289.464C1099.85 289.464 1106.5 287.625 1111.76 283.947C1117.19 280.093 1119.9 274.926 1119.9 268.445V250.315H1096.78C1078.39 250.315 1069.19 256.096 1069.19 267.656V272.911C1069.19 278.341 1071.21 282.458 1075.24 285.26C1079.26 288.063 1084.78 289.464 1091.79 289.464Z" fill="#00E5C4"/>
<path d="M888.527 282.897H922.159V200.395H888.527V173.857H955.79V210.905H957.892C959.118 206.175 960.782 201.621 962.884 197.242C965.162 192.688 967.964 188.746 971.292 185.418C974.796 181.915 979 179.112 983.904 177.01C988.809 174.908 994.677 173.857 1001.51 173.857H1016.22V205.387H988.371C978.211 205.387 970.241 208.365 964.461 214.32C958.681 220.276 955.79 227.896 955.79 237.179V282.897H1002.82V309.434H888.527V282.897Z" fill="#00E5C4"/>
<path d="M845.28 309.433C837.047 309.433 830.654 307.419 826.099 303.39C821.72 299.186 819.093 293.406 818.217 286.049H816.903C814.451 294.457 809.634 301.025 802.452 305.755C795.271 310.309 786.425 312.586 775.915 312.586C762.252 312.586 751.392 308.995 743.334 301.813C735.277 294.632 731.248 284.647 731.248 271.86C731.248 244.535 751.304 230.872 791.417 230.872H815.327V221.939C815.327 213.356 813.225 206.875 809.021 202.495C804.817 198.116 797.986 195.927 788.527 195.927C779.944 195.927 773.025 197.591 767.77 200.919C762.515 204.247 758.048 208.539 754.37 213.793L735.189 197.503C739.393 189.971 746.137 183.665 755.421 178.586C764.88 173.331 777.053 170.703 791.942 170.703C809.809 170.703 823.735 174.907 833.719 183.315C843.879 191.548 848.958 203.897 848.958 220.362V284.209H864.986V309.433H845.28ZM787.213 289.464C795.271 289.464 801.927 287.625 807.182 283.947C812.612 280.093 815.327 274.926 815.327 268.445V250.315H792.205C773.813 250.315 764.617 256.096 764.617 267.656V272.911C764.617 278.341 766.631 282.458 770.66 285.26C774.689 288.063 780.206 289.464 787.213 289.464Z" fill="#00E5C4"/>
<path d="M583.948 282.895H625.462V200.392H581.32V173.855H625.462V151.784C625.462 146.354 626.162 141.45 627.564 137.071C629.14 132.516 631.505 128.663 634.658 125.51C637.811 122.182 641.752 119.642 646.481 117.89C651.386 115.963 657.079 115 663.56 115H709.278V141.537H659.093V173.855H709.278V200.392H659.093V282.895H703.234V309.432H583.948V282.895Z" fill="#00E5C4"/>
<path d="M62.7832 214.658V286.41L130.349 320.492V249.936L62.7832 214.658Z" fill="#00E5C4"/>
<path d="M0.597931 254.719L0 320.491L62.7828 354.337V286.409L0.597931 254.719Z" fill="#00E5C4"/>
<path d="M130.948 321.089V391.047L200.905 428.717L336.636 355.171L337.234 285.811L398.821 254.121V107.628L200.308 0L136.329 34.68L197.916 67.5662L130.35 103.442L197.916 138.122L267.276 102.844L336.636 139.318V216.451L269.668 249.337V321.089L200.905 356.965L130.948 321.089Z" fill="#00E5C4"/>
<path d="M269.668 249.338L200.308 285.812L130.35 249.338V173.999L197.916 138.123L269.668 173.999V249.338Z" fill="#00E5C4"/>
<path d="M0.597656 183.565L62.1846 215.256V138.721L130.349 103.443L67.5659 71.1543L0.597656 107.628V183.565Z" fill="#00E5C4"/>
</svg>
